<svg xmlns="http://www.w3.org/2000/svg" viewBox="0 0 420 330">
<defs><linearGradient id="g" x1="0" x2="1"><stop stop-color="#fff3cf"/><stop offset="1" stop-color="#f7c4d1"/></linearGradient><filter id="s" x="-20%" y="-20%" width="140%" height="140%"><feDropShadow dx="0" dy="12" stdDeviation="10" flood-color="#3b0011" flood-opacity=".18"/></filter></defs>
<rect x="36" y="35" width="348" height="246" rx="34" fill="url(#g)" filter="url(#s)"/><path d="M70 97h280v28H70z" fill="#76001d"/><path d="M92 58h236l36 41H56z" fill="#d5a847"/><path d="M122 125h28v150h-28zm148 0h28v150h-28z" fill="#8a0628"/><path d="M80 275h260v20H80z" fill="#d5a847"/><circle cx="210" cy="188" r="50" fill="#fffaf0"/><path d="M188 173c11-17 33-18 45 0" fill="none" stroke="#76001d" stroke-width="8" stroke-linecap="round"/><circle cx="192" cy="192" r="7" fill="#3b0011"/><circle cx="228" cy="192" r="7" fill="#3b0011"/><path d="M194 220c12 12 28 12 40 0" fill="none" stroke="#76001d" stroke-width="7" stroke-linecap="round"/><path d="M170 141c18-24 62-24 80 0" fill="#d5a847"/><circle cx="90" cy="72" r="8" fill="#fff" opacity=".8"/><circle cx="335" cy="72" r="8" fill="#fff" opacity=".8"/><g fill="#d5a847"><circle cx="76" cy="158" r="5"/><circle cx="344" cy="160" r="5"/><circle cx="96" cy="226" r="4"/><circle cx="328" cy="226" r="4"/></g></svg>